<svg id="Capa_1" enable-background="new 0 0 511.359 511.359" height="512" viewBox="0 0 511.359 511.359" width="512" xmlns="http://www.w3.org/2000/svg"><g><path d="m444.157 332.687c-1.233-25.246-20.561-44.283-44.959-44.283-11.504 0-22.015 4.338-29.982 11.462-7.982-7.14-18.519-11.462-30.018-11.462-11.504 0-22.015 4.338-29.982 11.462-7.982-7.14-18.519-11.462-30.018-11.462-5.266 0-10.323.909-15.023 2.577v-25.128c22.274-10.151 41.399-25.942 55.737-46.123 16.784-23.622 25.655-51.472 25.655-80.539 0-76.75-62.441-139.191-139.191-139.191s-139.191 62.441-139.191 139.191c0 33.737 12.225 66.282 34.422 91.641 19.139 21.865 44.524 37.119 72.477 43.774l-.281 221.735c-.005 3.981 1.573 7.802 4.387 10.619 2.813 2.817 6.632 4.4 10.613 4.4h240.371c8.284 0 15-6.716 15-15v-162.941c0-.245-.006-.489-.017-.732zm-263.889-151.841c-14.036-8.866-23.083-24.548-23.083-41.655 0-27.124 22.066-49.191 49.191-49.191 27.124 0 49.191 22.067 49.191 49.191 0 10.365-3.213 20.227-9.068 28.442-7.59-5.794-17.06-9.229-27.301-9.229-16.603-.001-31.124 9.039-38.93 22.442zm-56.088 30.226c-17.408-19.888-26.995-45.415-26.995-71.881 0-60.208 48.982-109.191 109.191-109.191 60.208 0 109.191 48.983 109.191 109.191 0 38.008-19.975 72.94-51.393 92.63v-30.037c0-.269-.007-.539-.021-.807-.124-2.299-.423-4.549-.877-6.74 14.275-14.697 22.291-34.237 22.291-55.046 0-43.666-35.525-79.191-79.191-79.191s-79.19 35.525-79.19 79.191c0 31.352 18.87 59.729 46.979 72.322l-.04 31.997c-19.179-5.931-36.519-17.099-49.945-32.438zm289.994 270.287h-210.352l.353-277.933c0-8.284 6.739-15.023 15.023-15.023 7.869 0 14.384 6.058 14.977 13.853v131.17c0 8.284 6.716 15 15 15s15-6.716 15-15 6.739-15.023 15.023-15.023c7.869 0 14.384 6.058 14.977 13.853v1.17c0 8.284 6.716 15 15 15s15-6.716 15-15 6.739-15.023 15.023-15.023c7.869 0 14.384 6.058 14.977 13.853v1.17c0 8.284 6.716 15 15 15s15-6.716 15-15 6.739-15.023 15.023-15.023c8.147 0 14.402 6.47 14.977 15.431v147.525z"/></g></svg>